<?xml version="1.0" encoding="utf-8"?><!-- Uploaded to: SVG Repo, www.svgrepo.com, Generator: SVG Repo Mixer Tools -->
<svg version="1.1" xmlns="http://www.w3.org/2000/svg" xmlns:xlink="http://www.w3.org/1999/xlink" class="thumbnail-icon" viewBox="47.57835006713867 0.00004112720489501953 104.84327697753906 199.9999542236328"><g data-paper-data="{&quot;fillRule&quot;:&quot;nonzero&quot;,&quot;isIcon&quot;:&quot;true&quot;,&quot;selectedEffects&quot;:{&quot;container&quot;:&quot;&quot;,&quot;transformation&quot;:&quot;&quot;,&quot;pattern&quot;:&quot;&quot;},&quot;iconType&quot;:&quot;initial&quot;,&quot;rawInitialId&quot;:554,&quot;initialText&quot;:&quot;P&quot;,&quot;bounds&quot;:{&quot;x&quot;:230.92171284304243,&quot;y&quot;:114.99999999999999,&quot;width&quot;:88.15657431391514,&quot;height&quot;:168.16823028353554},&quot;iconStyle&quot;:&quot;standalone&quot;}"><path d="M77.77778,178.06268c-3.03894,0 -4.5584,-1.51947 -4.5584,-4.5584v-61.25356c0,-3.03894 1.51947,-4.5584 4.5584,-4.5584h22.22222c2.46914,0 6.12536,-0.66477 10.96866,-1.9943c4.8433,-1.32953 9.73409,-3.89364 14.67236,-7.69231c11.58594,-9.49668 17.37892,-23.55176 17.37892,-42.16524c0,-6.64767 -0.94967,-12.82051 -2.849,-18.51852c-1.89934,-5.69801 -4.65337,-10.58879 -8.26211,-14.67236c-3.60874,-4.08357 -8.11966,-7.31244 -13.53276,-9.68661c-5.41311,-2.37417 -11.53846,-3.56125 -18.37607,-3.56125h-22.50712c-1.32953,0 -2.46914,-0.47483 -3.4188,-1.4245c-0.94967,-0.94967 -1.4245,-2.08927 -1.4245,-3.4188c0,-1.32953 0.47483,-2.42165 1.4245,-3.27635c0.94967,-0.8547 2.08927,-1.28205 3.4188,-1.28205h22.50712c8.35708,0 15.81197,1.4245 22.36467,4.2735c6.55271,2.849 12.06078,6.79012 16.52422,11.82336c4.46344,5.03324 7.83476,10.96866 10.11396,17.80627c2.2792,6.83761 3.4188,14.15005 3.4188,21.93732c0,9.30674 -1.61443,18.37607 -4.8433,27.20798c-3.22887,8.83191 -8.64198,16.19183 -16.23932,22.07977c-5.50807,4.36847 -11.15859,7.45489 -16.95157,9.25926c-5.79297,1.80437 -10.58879,2.70655 -14.38746,2.70655h-17.37892v56.41026c0,1.32953 -0.47483,2.42165 -1.4245,3.27635c-0.94967,0.8547 -2.08927,1.28205 -3.4188,1.28205zM47.57835,29.91453c0,-1.32953 0.42735,-2.46914 1.28205,-3.4188c0.8547,-0.94967 2.04179,-1.4245 3.56125,-1.4245h37.03704c5.12821,0 10.01899,0.61728 14.67236,1.85185c4.65337,1.23457 8.68946,3.18139 12.10826,5.84046c3.4188,2.65907 6.17284,6.07787 8.26211,10.25641c2.08927,4.17854 3.1339,9.11681 3.1339,14.81481c0,5.69801 -0.99715,10.63628 -2.99145,14.81481c-1.9943,4.17854 -4.74834,7.73979 -8.26211,10.68376c-3.51377,2.94397 -7.59734,5.12821 -12.25071,6.55271c-4.65337,1.4245 -9.54416,2.13675 -14.67236,2.13675h-11.68091c-3.03894,0 -4.5584,-1.51947 -4.5584,-4.5584v-19.94302c0,-3.03894 1.51947,-4.5584 4.5584,-4.5584c1.32953,0 2.46914,0.42735 3.4188,1.28205c0.94967,0.8547 1.4245,1.94682 1.4245,3.27635v15.09972h6.83761c7.78727,0 14.52991,-1.9943 20.22792,-5.98291c5.69801,-3.9886 8.54701,-10.25641 8.54701,-18.80342c0,-4.36847 -0.80722,-8.02469 -2.42165,-10.96866c-1.61443,-2.94397 -3.7037,-5.36562 -6.26781,-7.26496c-2.5641,-1.89934 -5.60304,-3.22887 -9.11681,-3.9886c-3.51377,-0.75973 -7.16999,-1.1396 -10.96866,-1.1396h-32.47863v160.68376c0,1.32953 -0.42735,2.46914 -1.28205,3.4188c-0.8547,0.94967 -1.94682,1.4245 -3.27635,1.4245c-1.51947,0 -2.70655,-0.47483 -3.56125,-1.4245c-0.8547,-0.94967 -1.28205,-2.08927 -1.28205,-3.4188zM76.35328,56.41026c-1.51947,-0.37987 -2.5641,-1.18708 -3.1339,-2.42165c-0.5698,-1.23457 -0.66477,-2.51662 -0.2849,-3.84615v-0.2849c0.94967,-2.2792 2.65907,-3.4188 5.12821,-3.4188c0.5698,0 1.04463,0.09497 1.4245,0.2849c1.51947,0.37987 2.5641,1.18708 3.1339,2.42165c0.5698,1.23457 0.66477,2.61159 0.2849,4.13105h-0.2849c-0.5698,2.2792 -2.18424,3.4188 -4.8433,3.4188z" fill-rule="nonzero"></path></g></svg>