<?xml version="1.0" encoding="utf-8"?><!-- Uploaded to: SVG Repo, www.svgrepo.com, Generator: SVG Repo Mixer Tools -->
<svg version="1.1" xmlns="http://www.w3.org/2000/svg" xmlns:xlink="http://www.w3.org/1999/xlink" class="thumbnail-icon" viewBox="-0.00002294778823852539 58.12486267089844 200.00003051757812 83.75032043457031"><g data-paper-data="{&quot;fillRule&quot;:&quot;nonzero&quot;,&quot;isIcon&quot;:&quot;true&quot;,&quot;selectedEffects&quot;:{&quot;container&quot;:&quot;&quot;,&quot;transformation&quot;:&quot;&quot;,&quot;pattern&quot;:&quot;&quot;},&quot;iconType&quot;:&quot;initial&quot;,&quot;rawInitialId&quot;:554,&quot;initialText&quot;:&quot;Pat&quot;,&quot;bounds&quot;:{&quot;x&quot;:132.06729310691819,&quot;y&quot;:115,&quot;width&quot;:285.8654137861636,&quot;height&quot;:119.70655813217246},&quot;iconStyle&quot;:&quot;standalone&quot;}"><path d="M12.62807,132.70193c-1.27075,0 -1.90612,-0.63537 -1.90612,-1.90612v-25.61353c0,-1.27075 0.63537,-1.90612 1.90612,-1.90612h9.29235c1.03248,0 2.56135,-0.27798 4.58661,-0.83393c2.02526,-0.55595 4.07037,-1.62815 6.13533,-3.21658c4.84473,-3.97109 7.2671,-9.8483 7.2671,-17.63164c0,-2.77976 -0.39711,-5.36097 -1.19133,-7.74363c-0.79422,-2.38265 -1.94583,-4.42777 -3.45485,-6.13533c-1.50901,-1.70757 -3.39528,-3.05774 -5.6588,-4.05051c-2.26352,-0.99277 -4.82487,-1.48916 -7.68406,-1.48916h-9.41148c-0.55595,0 -1.03248,-0.19855 -1.42959,-0.59566c-0.39711,-0.39711 -0.59566,-0.87364 -0.59566,-1.42959c0,-0.55595 0.19855,-1.01263 0.59566,-1.37003c0.39711,-0.3574 0.87364,-0.5361 1.42959,-0.5361h9.41148c3.49456,0 6.61187,0.59566 9.35192,1.78699c2.74005,1.19133 5.04328,2.83933 6.9097,4.94401c1.86641,2.10468 3.27615,4.58661 4.22921,7.44579c0.95306,2.85919 1.42959,5.91692 1.42959,9.17322c0,3.89167 -0.67509,7.68406 -2.02526,11.37717c-1.35017,3.69311 -3.61369,6.77071 -6.79056,9.23279c-2.30323,1.8267 -4.66603,3.11731 -7.0884,3.87181c-2.42237,0.75451 -4.42777,1.13176 -6.0162,1.13176h-7.2671v23.58828c0,0.55595 -0.19855,1.01263 -0.59566,1.37003c-0.39711,0.3574 -0.87364,0.5361 -1.42959,0.5361zM0,70.75292c0,-0.55595 0.1787,-1.03248 0.5361,-1.42959c0.3574,-0.39711 0.85378,-0.59566 1.48916,-0.59566h15.48725c2.14439,0 4.1895,0.25812 6.13533,0.77436c1.94583,0.51624 3.63355,1.33032 5.06314,2.44222c1.42959,1.11191 2.58121,2.5415 3.45485,4.28878c0.87364,1.74728 1.31046,3.81225 1.31046,6.1949c0,2.38265 -0.41696,4.44762 -1.25089,6.1949c-0.83393,1.74728 -1.98555,3.23644 -3.45485,4.46748c-1.4693,1.23104 -3.17687,2.14439 -5.12271,2.74005c-1.94583,0.59566 -3.99095,0.8935 -6.13533,0.8935h-4.88444c-1.27075,0 -1.90612,-0.63537 -1.90612,-1.90612v-8.33929c0,-1.27075 0.63537,-1.90612 1.90612,-1.90612c0.55595,0 1.03248,0.1787 1.42959,0.5361c0.39711,0.3574 0.59566,0.81407 0.59566,1.37003v6.31403h2.85919c3.25629,0 6.07577,-0.83393 8.45842,-2.50179c2.38265,-1.66786 3.57398,-4.28878 3.57398,-7.86276c0,-1.8267 -0.33754,-3.35557 -1.01263,-4.58661c-0.67509,-1.23104 -1.54873,-2.24367 -2.62092,-3.03788c-1.07219,-0.79422 -2.34294,-1.35017 -3.81225,-1.66786c-1.4693,-0.31769 -2.99817,-0.47653 -4.58661,-0.47653h-13.58113v67.19085c0,0.55595 -0.1787,1.03248 -0.5361,1.42959c-0.3574,0.39711 -0.81407,0.59566 -1.37003,0.59566c-0.63537,0 -1.13176,-0.19855 -1.48916,-0.59566c-0.3574,-0.39711 -0.5361,-0.87364 -0.5361,-1.42959zM12.0324,81.83226c-0.63537,-0.15884 -1.07219,-0.49639 -1.31046,-1.01263c-0.23827,-0.51624 -0.27798,-1.05234 -0.11913,-1.60829v-0.11913c0.39711,-0.95306 1.11191,-1.42959 2.14439,-1.42959c0.23827,0 0.43682,0.03971 0.59566,0.11913c0.63537,0.15884 1.07219,0.49639 1.31046,1.01263c0.23827,0.51624 0.27798,1.09205 0.11913,1.72742h-0.11913c-0.23827,0.95306 -0.91335,1.42959 -2.02526,1.42959zM58.13676,141.39862c-1.58844,-0.47653 -2.1841,-1.35017 -1.78699,-2.62092l29.30665,-78.74672c0.39711,-0.87364 1.03248,-1.31046 1.90612,-1.31046h1.66786c0.87364,0 1.50901,0.43682 1.90612,1.31046l14.17679,43.24518c0.15884,0.55595 0.11913,1.07219 -0.11913,1.54873c-0.23827,0.47653 -0.63537,0.79422 -1.19133,0.95306c-0.15884,0 -0.25812,0.01986 -0.29783,0.05957c-0.03971,0.03971 -0.13899,0.05957 -0.29783,0.05957c-0.87364,0 -1.50901,-0.47653 -1.90612,-1.42959l-13.22373,-40.26686l-28.23445,76.00667c-0.39711,0.79422 -1.03248,1.19133 -1.90612,1.19133zM125.56588,141.39862c-0.87364,0 -1.50901,-0.39711 -1.90612,-1.19133l-9.53062,-25.97093h-26.44746c-0.63537,0 -1.13176,-0.19855 -1.48916,-0.59566c-0.3574,-0.39711 -0.5361,-0.87364 -0.5361,-1.42959c0,-1.27075 0.67509,-1.90612 2.02526,-1.90612h27.87706c0.79422,0 1.38988,0.3574 1.78699,1.07219l10.00715,27.40052c0.39711,1.27075 0,2.10468 -1.19133,2.50179zM71.47963,135.08458c-1.58844,-0.47653 -2.1841,-1.35017 -1.78699,-2.62092l16.55945,-48.84441c0.47653,-0.87364 1.11191,-1.31046 1.90612,-1.31046c0.15884,0 0.27798,0.01986 0.3574,0.05957c0.07942,0.03971 0.15884,0.05957 0.23827,0.05957c0.55595,0.15884 0.95306,0.49639 1.19133,1.01263c0.23827,0.51624 0.27798,1.01263 0.11913,1.48916l-16.67858,48.84441c-0.39711,0.87364 -1.03248,1.31046 -1.90612,1.31046zM112.81868,134.96545c-0.95306,0 -1.54873,-0.43682 -1.78699,-1.31046l-2.97832,-8.93495h-23.70741c-0.55595,0 -1.01263,-0.19855 -1.37003,-0.59566c-0.3574,-0.39711 -0.5361,-0.87364 -0.5361,-1.42959c0,-1.27075 0.63537,-1.90612 1.90612,-1.90612h25.137c0.87364,0 1.50901,0.43682 1.90612,1.31046l3.33572,10.36455c0.15884,0.47653 0.11913,0.95306 -0.11913,1.42959c-0.23827,0.47653 -0.63537,0.79422 -1.19133,0.95306zM112.46128,105.77794c-0.87364,0 -1.50901,-0.43682 -1.90612,-1.31046l-11.91327,-36.57374c-0.39711,-1.27075 0,-2.10468 1.19133,-2.50179c0.15884,-0.07942 0.3574,-0.11913 0.59566,-0.11913c0.95306,0 1.58844,0.43682 1.90612,1.31046l12.0324,36.57374c0.15884,0.55595 0.11913,1.07219 -0.11913,1.54873c-0.23827,0.47653 -0.63537,0.79422 -1.19133,0.95306zM69.33524,141.63688c-0.87364,-0.23827 -1.4693,-0.61552 -1.78699,-1.13176c-0.31769,-0.51624 -0.39711,-1.09205 -0.23827,-1.72742c0.39711,-1.03248 1.07219,-1.54873 2.02526,-1.54873c0.15884,0 0.27798,0.01986 0.3574,0.05957c0.07942,0.03971 0.19855,0.05957 0.3574,0.05957c0.55595,0.23827 0.95306,0.61552 1.19133,1.13176c0.23827,0.51624 0.27798,1.05234 0.11913,1.60829v0.11913c-0.39711,0.95306 -1.07219,1.42959 -2.02526,1.42959zM166.90493,139.61163c0,1.27075 -0.63537,1.90612 -1.90612,1.90612c-0.55595,0 -1.03248,-0.1787 -1.42959,-0.5361c-0.39711,-0.3574 -0.59566,-0.81407 -0.59566,-1.37003v-28.71098c0,-0.63537 0.19855,-1.13176 0.59566,-1.48916c0.39711,-0.3574 0.87364,-0.5361 1.42959,-0.5361c1.27075,0 1.90612,0.67509 1.90612,2.02526zM173.6955,89.45675v-18.5847c0,-0.55595 0.19855,-1.03248 0.59566,-1.42959c0.39711,-0.39711 0.87364,-0.59566 1.42959,-0.59566h22.03955c0.63537,0 1.13176,0.19855 1.48916,0.59566c0.3574,0.39711 0.5361,0.87364 0.5361,1.42959c0,1.27075 -0.67509,1.90612 -2.02526,1.90612h-20.13343v16.67858c0,1.27075 -0.63537,1.90612 -1.90612,1.90612c-0.55595,0 -1.03248,-0.1787 -1.42959,-0.5361c-0.39711,-0.3574 -0.59566,-0.81407 -0.59566,-1.37003zM155.70646,68.8468c0.55595,0 1.01263,0.19855 1.37003,0.59566c0.3574,0.39711 0.5361,0.87364 0.5361,1.42959c0,1.27075 -0.63537,1.90612 -1.90612,1.90612h-14.53419c-1.35017,0 -2.02526,-0.63537 -2.02526,-1.90612c0,-0.55595 0.1787,-1.03248 0.5361,-1.42959c0.3574,-0.39711 0.85378,-0.59566 1.48916,-0.59566zM166.7858,60.38837v37.64594h8.93495c0.55595,0 1.01263,0.19855 1.37003,0.59566c0.3574,0.39711 0.5361,0.87364 0.5361,1.42959v30.37884c0,1.35017 -0.63537,2.02526 -1.90612,2.02526c-0.55595,0 -1.03248,-0.1787 -1.42959,-0.5361c-0.39711,-0.3574 -0.59566,-0.85378 -0.59566,-1.48916v-28.47272h-8.81582c-0.55595,0 -1.03248,-0.1787 -1.42959,-0.5361c-0.39711,-0.3574 -0.59566,-0.81407 -0.59566,-1.37003v-37.76507h-21.68215c-1.35017,0 -2.02526,-0.63537 -2.02526,-1.90612c0,-1.35017 0.67509,-2.02526 2.02526,-2.02526h23.70741c1.27075,0 1.90612,0.67509 1.90612,2.02526zM175.72075,58.36312h15.48725c1.27075,0 1.90612,0.67509 1.90612,2.02526c0,1.27075 -0.63537,1.90612 -1.90612,1.90612h-15.48725c-0.55595,0 -1.03248,-0.1787 -1.42959,-0.5361c-0.39711,-0.3574 -0.59566,-0.81407 -0.59566,-1.37003c0,-0.63537 0.19855,-1.13176 0.59566,-1.48916c0.39711,-0.3574 0.87364,-0.5361 1.42959,-0.5361zM198.4751,58.24398c0.63537,0.15884 1.07219,0.51624 1.31046,1.07219c0.23827,0.55595 0.27798,1.11191 0.11913,1.66786h-0.11913c-0.23827,1.03248 -0.91335,1.54873 -2.02526,1.54873c-0.87364,-0.31769 -1.4693,-0.73465 -1.78699,-1.25089c-0.31769,-0.51624 -0.39711,-1.05234 -0.23827,-1.60829l0.11913,-0.11913c0.23827,-0.95306 0.91335,-1.42959 2.02526,-1.42959c0.31769,0 0.51624,0.03971 0.59566,0.11913z" fill-rule="nonzero"></path></g></svg>