<?xml version="1.0" standalone="no"?>
<!DOCTYPE svg PUBLIC "-//W3C//DTD SVG 20010904//EN"
 "http://www.w3.org/TR/2001/REC-SVG-20010904/DTD/svg10.dtd">
<svg version="1.0" xmlns="http://www.w3.org/2000/svg"
 width="1500.000000pt" height="1500.000000pt" viewBox="0 0 1500.000000 1500.000000"
 preserveAspectRatio="xMidYMid meet">

<g transform="translate(0.000000,1500.000000) scale(0.100000,-0.100000)"
fill="#000000" stroke="none">
<path d="M838 9617 l-306 -314 312 -312 313 -313 258 6 c142 4 260 7 261 9 1
1 -116 121 -261 267 -145 145 -262 266 -261 268 6 5 1920 16 2456 13 l235 -1
-113 -113 c-61 -62 -112 -116 -112 -120 0 -4 57 -7 127 -7 l127 0 160 160 161
160 -155 155 -155 155 -132 0 c-73 0 -133 -3 -133 -7 0 -4 53 -58 118 -120
l117 -113 -300 -1 c-165 -1 -777 -3 -1359 -4 l-1059 -3 229 231 c126 128 247
251 269 275 l39 42 -264 0 -265 0 -307 -313z"/>
<path d="M13170 9649 c-358 -44 -706 -180 -979 -384 -513 -383 -794 -970 -794
-1655 0 -257 30 -453 105 -689 236 -742 877 -1257 1682 -1352 128 -15 462 -6
577 15 366 68 678 223 913 453 78 77 196 217 196 233 0 9 -306 230 -318 230
-4 -1 -29 -32 -57 -71 -142 -202 -347 -353 -585 -433 -167 -56 -267 -70 -490
-70 -163 0 -214 3 -308 22 -604 121 -1050 542 -1217 1150 -51 183 -67 310 -68
512 0 197 16 321 63 498 156 582 570 1000 1133 1142 210 53 449 62 627 25 296
-62 582 -232 752 -445 l35 -44 171 128 c141 105 170 131 163 144 -5 10 -42 52
-81 94 -228 247 -535 406 -924 479 -127 24 -466 34 -596 18z"/>
<path d="M5160 7610 l0 -1950 200 0 200 0 0 905 0 905 333 0 332 0 531 -903
532 -902 242 -3 c192 -2 241 0 237 10 -2 7 -253 422 -556 922 -304 499 -551
910 -549 911 2 2 46 11 98 19 384 62 644 239 790 540 72 146 91 230 97 413 8
231 -25 397 -112 563 -146 277 -477 460 -920 510 -51 6 -383 10 -772 10 l-683
0 0 -1950z m1420 1567 c124 -25 201 -47 266 -77 247 -112 373 -309 374 -586 0
-180 -53 -318 -170 -435 -88 -88 -186 -144 -325 -184 -174 -50 -235 -55 -717
-55 l-448 0 0 681 0 681 473 -5 c365 -4 489 -8 547 -20z"/>
<path d="M8460 7610 l0 -1950 200 0 200 0 0 904 0 904 488 4 c451 4 496 6 612
27 432 78 725 279 846 581 108 265 105 627 -6 894 -129 308 -453 511 -913 571
-95 12 -245 15 -773 15 l-654 0 0 -1950z m1248 1579 c154 -16 303 -56 406
-107 71 -35 107 -62 166 -121 123 -124 173 -253 172 -451 -1 -229 -83 -389
-259 -507 -99 -66 -188 -102 -331 -135 -90 -20 -128 -22 -549 -25 l-453 -4 0
680 0 681 375 0 c207 0 419 -5 473 -11z"/>
<path d="M2455 8284 c-175 -31 -378 -115 -515 -212 -140 -100 -277 -253 -370
-412 -180 -308 -228 -720 -125 -1075 131 -452 508 -793 995 -900 103 -23 367
-31 483 -15 309 42 561 180 729 401 l53 69 3 -287 c4 -375 -16 -522 -93 -689
-116 -254 -314 -405 -620 -475 -143 -32 -404 -32 -555 0 -244 52 -430 153
-609 329 l-115 114 -132 -139 c-75 -78 -129 -144 -126 -151 9 -25 196 -183
286 -243 292 -193 632 -281 1026 -265 283 11 457 49 646 141 341 166 549 441
623 829 38 194 41 321 41 1647 l0 1289 -185 0 -185 0 0 -217 0 -218 -47 55
c-198 233 -448 378 -733 425 -118 19 -365 18 -475 -1z m510 -333 c342 -70 604
-307 708 -636 40 -128 50 -216 45 -396 -5 -140 -9 -177 -32 -254 -83 -274
-270 -480 -545 -598 -116 -50 -206 -69 -352 -74 -218 -9 -370 32 -546 146
-284 184 -453 495 -453 836 0 139 12 215 54 338 109 320 387 571 711 642 92
20 303 18 410 -4z"/>
</g>
</svg>
