<svg width="20" height="20" viewBox="0 0 20 20" fill="none" xmlns="http://www.w3.org/2000/svg">
<path d="M6.49101 4.50292C6.94135 4.49455 7.39104 4.54072 7.83029 4.64042C8.20011 4.72116 8.55123 4.87141 8.86499 5.08317C9.15477 5.29375 9.38405 5.57686 9.52981 5.90406C9.69734 6.30642 9.77816 6.73957 9.76701 7.17527C9.78603 7.65367 9.66385 8.1271 9.41569 8.53654C9.15462 8.92325 8.79375 9.23209 8.37136 9.43031C8.94457 9.58484 9.44384 9.93882 9.77938 10.4286C10.1015 10.9475 10.2634 11.5499 10.2448 12.1604C10.2555 12.6472 10.1548 13.1299 9.95057 13.5719C9.76179 13.9574 9.48536 14.2934 9.14343 14.553C8.7914 14.8096 8.39525 14.9996 7.97466 15.1133C7.53851 15.2339 7.08793 15.2945 6.63539 15.2934H1.66675V4.50292H6.49101ZM6.20432 8.86724C6.55816 8.88182 6.90647 8.7759 7.19228 8.56679C7.32915 8.44494 7.43563 8.29276 7.5032 8.12241C7.57077 7.95206 7.59755 7.76826 7.58141 7.58572C7.59057 7.37251 7.54811 7.16024 7.45766 6.96696C7.38092 6.81306 7.26161 6.68444 7.1139 6.59639C6.96429 6.49946 6.79621 6.43461 6.62027 6.40595C6.42937 6.36897 6.23511 6.35214 6.04069 6.35576H3.91766V8.87686H6.20432V8.86724ZM6.32807 13.4612C6.54206 13.4641 6.7556 13.441 6.96402 13.3924C7.15449 13.3504 7.33512 13.2722 7.49616 13.1621C7.65391 13.0521 7.78137 12.9041 7.86672 12.7317C7.9657 12.512 8.01117 12.2719 7.99941 12.0312C8.02087 11.8118 7.99182 11.5904 7.91447 11.384C7.83713 11.1776 7.71356 10.9916 7.55322 10.8404C7.21338 10.5901 6.79692 10.4661 6.37551 10.4898H3.91766V13.4612H6.32807Z" fill="black"/>
<path d="M13.4507 13.4212C13.6273 13.585 13.8355 13.7111 14.0624 13.792C14.2893 13.8728 14.5303 13.9067 14.7707 13.8915C15.1518 13.9011 15.5255 13.7852 15.8343 13.5615C16.0854 13.3982 16.2756 13.1565 16.3753 12.874H18.1704C17.9792 13.6782 17.5121 14.3901 16.8504 14.8856C16.2156 15.307 15.4655 15.5203 14.704 15.4961C14.1605 15.5033 13.6211 15.4011 13.1179 15.1957C12.6627 15.0059 12.2544 14.7189 11.9216 14.3549C11.5901 13.9734 11.3354 13.5315 11.1716 13.0534C10.9877 12.519 10.8976 11.9568 10.9055 11.3917C10.9022 10.8361 10.9952 10.2841 11.1805 9.76024C11.4295 9.0233 11.9055 8.38418 12.5402 7.93458C13.175 7.48498 13.9358 7.24802 14.7136 7.2577C15.2879 7.24569 15.8557 7.38008 16.3637 7.6482C16.8228 7.89997 17.2189 8.25257 17.5221 8.67947C17.8323 9.12742 18.0546 9.63018 18.1773 10.1611C18.3118 10.7311 18.3598 11.3182 18.3196 11.9025H12.9729C12.9295 12.4515 13.1008 12.9959 13.4507 13.4212ZM15.7965 9.31748C15.6468 9.16782 15.4669 9.05197 15.2687 8.97773C15.0705 8.90349 14.8588 8.87259 14.6476 8.8871C14.3675 8.87642 14.0895 8.93848 13.8405 9.06723C13.6431 9.17589 13.4689 9.32209 13.3276 9.49761C13.2024 9.66217 13.1091 9.84872 13.0526 10.0476C13.0017 10.2135 12.9698 10.3847 12.9577 10.5578H16.2695C16.2406 10.1065 16.0762 9.67447 15.7978 9.31817L15.7965 9.31748Z" fill="black"/>
<path d="M16.6806 5.22339H12.5308V6.28422H16.6806V5.22339Z" fill="black"/>
</svg>
