<svg xmlns="http://www.w3.org/2000/svg" version="1.1" viewBox="0 0 120.0 135.0">
 <path d="m10.816 20.121c1.4453-0.89062 3.1094-1.3633 4.8086-1.3711h68.75c1.6992 0.007812 3.3633 0.48047 4.8086 1.3711l-37.449 24.969c-1.0508 0.70312-2.418 0.70312-3.4688 0zm44.375 30.168c-3.1484 2.1055-7.2539 2.1055-10.402 0l-37.953-25.312c-0.37891 1.0078-0.57422 2.0742-0.58594 3.1484v43.75c0 5.1758 4.1992 9.375 9.375 9.375h68.75c5.1758 0 9.375-4.1992 9.375-9.375v-43.75c-0.011719-1.0742-0.20703-2.1406-0.58203-3.1484z"/>
</svg>