<svg width="32" height="32" viewBox="0 0 32 32" fill="none" xmlns="http://www.w3.org/2000/svg">
<path d="M16 1.33337L4 6.66671V14.6667C4 22.0667 9.12 28.9867 16 30.6667C22.88 28.9867 28 22.0667 28 14.6667V6.66671L16 1.33337ZM16 9.33337C17.8667 9.33337 19.7333 10.8 19.7333 12.6667V14.6667C20.5333 14.6667 21.3333 15.4667 21.3333 16.4V21.0667C21.3333 21.8667 20.5333 22.6667 19.6 22.6667H12.2667C11.4667 22.6667 10.6667 21.8667 10.6667 20.9334V16.2667C10.6667 15.4667 11.4667 14.6667 12.2667 14.6667V12.6667C12.2667 10.8 14.1333 9.33337 16 9.33337ZM16 10.9334C14.9333 10.9334 14 11.6 14 12.6667V14.6667H18V12.6667C18 11.6 17.0667 10.9334 16 10.9334Z" fill="black"/>
</svg>
